<svg width="28" height="28" viewBox="0 0 28 28" fill="none" xmlns="http://www.w3.org/2000/svg">
<path fill-rule="evenodd" clip-rule="evenodd" d="M23.0579 15.5335C22.8117 15.2796 22.6989 14.928 22.7264 14.5754C22.7413 14.3856 22.7502 14.1944 22.7502 14.0002C22.7502 13.7972 22.7404 13.5943 22.7244 13.3896C22.6968 13.0373 22.8125 12.6869 23.0602 12.4347L24.6482 10.8183C25.0157 10.4442 25.0885 9.87083 24.826 9.41681L23.3775 6.91093C23.1167 6.4597 22.5882 6.23621 22.0828 6.36338L19.8597 6.92273C19.5184 7.00861 19.1589 6.93243 18.8678 6.73458C18.5514 6.51947 18.2238 6.32237 17.8743 6.14938C17.549 5.98839 17.2905 5.71041 17.1915 5.36122L16.574 3.18207C16.4317 2.68002 15.9733 2.3335 15.4515 2.3335H12.5488C12.027 2.3335 11.5686 2.68002 11.4264 3.18207L10.8088 5.36122C10.7098 5.71041 10.4513 5.98839 10.126 6.14938C9.77652 6.32237 9.4489 6.51947 9.13247 6.73458C8.84142 6.93243 8.48189 7.00861 8.14059 6.92273L5.91752 6.36338C5.41208 6.23621 4.88361 6.4597 4.62278 6.91093L3.17429 9.41681C2.91185 9.87083 2.98459 10.4442 3.3521 10.8183L4.9401 12.4347C5.18777 12.6869 5.30352 13.0373 5.27592 13.3896C5.25988 13.5943 5.25016 13.7972 5.25016 14.0002C5.25016 14.1944 5.25907 14.3856 5.27389 14.5754C5.30142 14.928 5.18859 15.2796 4.94238 15.5335L3.34373 17.1823C2.98067 17.5568 2.91026 18.1267 3.17127 18.5783L4.62139 21.087C4.88287 21.5394 5.41324 21.7627 5.91956 21.6337L8.1304 21.0703C8.47748 20.9818 8.84337 21.0614 9.13826 21.2647C9.45291 21.4816 9.77869 21.6785 10.1261 21.8508C10.4512 22.0121 10.7098 22.2899 10.8088 22.6391L11.4264 24.8183C11.5686 25.3203 12.027 25.6668 12.5488 25.6668H15.4515C15.9733 25.6668 16.4317 25.3203 16.574 24.8183L17.1942 22.6296C17.2916 22.2858 17.5437 22.0103 17.8637 21.8512C18.2147 21.6765 18.5437 21.4807 18.8613 21.2636C19.157 21.0616 19.5228 20.9818 19.8699 21.0703L22.0808 21.6337C22.5871 21.7627 23.1174 21.5394 23.3789 21.087L24.829 18.5783C25.0901 18.1267 25.0196 17.5568 24.6566 17.1823L23.0579 15.5335ZM11.1128 16.8875C11.8786 17.6533 12.9172 18.0835 14.0002 18.0835C15.0831 18.0835 16.1217 17.6533 16.8875 16.8875C17.6533 16.1217 18.0835 15.0831 18.0835 14.0002C18.0835 12.9172 17.6533 11.8786 16.8875 11.1128C16.1217 10.347 15.0831 9.91683 14.0002 9.91683C12.9172 9.91683 11.8786 10.347 11.1128 11.1128C10.347 11.8786 9.91683 12.9172 9.91683 14.0002C9.91683 15.0831 10.347 16.1217 11.1128 16.8875Z" fill="#939599"/>
</svg>
