<svg width="28" height="28" viewBox="0 0 28 28" fill="none" xmlns="http://www.w3.org/2000/svg">
<g id="cart">
<path id="Vector" d="M19.8333 19.8333C18.5447 19.8333 17.5 20.878 17.5 22.1667C17.5 23.4553 18.5447 24.5 19.8333 24.5C21.122 24.5 22.1667 23.4553 22.1667 22.1667C22.1667 20.878 21.122 19.8333 19.8333 19.8333ZM19.8333 19.8333H10.8429C10.305 19.8333 10.0356 19.8333 9.81413 19.7376C9.61877 19.6532 9.44928 19.5173 9.3258 19.344C9.18739 19.1497 9.13172 18.8899 9.02153 18.3756L6.15007 4.97542C6.03731 4.44924 5.98018 4.18644 5.84017 3.98991C5.71668 3.81657 5.54723 3.68015 5.35187 3.59572C5.13036 3.5 4.86242 3.5 4.32429 3.5H3.5M7 7H22.0188C22.8608 7 23.2814 7 23.5641 7.17542C23.8116 7.32907 23.9929 7.57006 24.0719 7.8505C24.1621 8.17067 24.0462 8.57496 23.8128 9.38403L22.1974 14.984C22.0579 15.4678 21.9881 15.7092 21.8465 15.8887C21.7216 16.0471 21.5567 16.1712 21.3699 16.2473C21.1588 16.3333 20.908 16.3333 20.4074 16.3333H9.01888M9.33333 24.5C8.04467 24.5 7 23.4553 7 22.1667C7 20.878 8.04467 19.8333 9.33333 19.8333C10.622 19.8333 11.6667 20.878 11.6667 22.1667C11.6667 23.4553 10.622 24.5 9.33333 24.5Z" stroke="black" stroke-width="1.5" stroke-linecap="round" stroke-linejoin="round"/>
</g>
</svg>
