<svg width="29" height="28" viewBox="0 0 29 28" fill="none" xmlns="http://www.w3.org/2000/svg">
<g id="pickle">
<g id="Vector">
<path d="M23.1985 14C25.6005 11.598 25.6005 7.70354 23.1985 5.30152C20.7965 2.8995 16.902 2.8995 14.5 5.30152C12.098 2.8995 8.20354 2.8995 5.80152 5.30152C3.3995 7.70354 3.3995 11.598 5.80152 14C3.3995 16.402 3.3995 20.2965 5.80152 22.6985C8.20354 25.1005 12.098 25.1005 14.5 22.6985C16.902 25.1005 20.7965 25.1005 23.1985 22.6985C25.6005 20.2965 25.6005 16.402 23.1985 14Z" stroke="black" stroke-width="1.5" stroke-linejoin="round"/>
<path d="M17.2184 13.58C17.5198 13.7789 17.5198 14.2212 17.2184 14.4201L12.7642 17.3591C12.4296 17.5799 11.9838 17.3399 11.9838 16.939L11.9838 11.0611C11.9838 10.6602 12.4296 10.4202 12.7642 10.641L17.2184 13.58Z" stroke="black" stroke-width="1.5" stroke-linejoin="round"/>
</g>
</g>
</svg>
