<svg width="24" height="24" viewBox="0 0 24 24" fill="none" xmlns="http://www.w3.org/2000/svg">
<path d="M19 15H15C15 15.7956 14.6839 16.5587 14.1213 17.1213C13.5587 17.6839 12.7956 18 12 18C11.2044 18 10.4413 17.6839 9.87868 17.1213C9.31607 16.5587 9 15.7956 9 15H5V5H19M19 3H5C3.89 3 3 3.9 3 5V19C3 19.5304 3.21071 20.0391 3.58579 20.4142C3.96086 20.7893 4.46957 21 5 21H19C19.5304 21 20.0391 20.7893 20.4142 20.4142C20.7893 20.0391 21 19.5304 21 19V5C21 4.46957 20.7893 3.96086 20.4142 3.58579C20.0391 3.21071 19.5304 3 19 3Z" fill="black"/>
</svg>
