<svg width="16" height="27" viewBox="0 0 16 27" fill="none" xmlns="http://www.w3.org/2000/svg">
<path d="M3 26L1 8H15L13 26H3Z" fill="#0A7FF5" stroke="#0A7FF5" stroke-linejoin="round"/>
<path d="M9 1C9 0.447715 9.44772 0 10 0H12C12.5523 0 13 0.447715 13 1V5C13 5.55228 12.5523 6 12 6H10C9.44772 6 9 5.55228 9 5V1Z" fill="#0A7FF5"/>
<path d="M3 3C3 2.44772 3.44772 2 4 2H12C12.5523 2 13 2.44772 13 3V5C13 5.55228 12.5523 6 12 6H4C3.44772 6 3 5.55228 3 5V3Z" fill="#0A7FF5"/>
<path d="M2 5V8H14V3L2 5Z" fill="#C4DDF5" stroke="#C4DDF5" stroke-width="2" stroke-linecap="round" stroke-linejoin="round"/>
<rect y="7" width="16" height="2" rx="1" fill="white"/>
<rect x="3" y="12" width="4" height="2" rx="1" fill="#93C4F5"/>
<rect x="3" y="15" width="4" height="2" rx="1" fill="#93C4F5"/>
<rect x="3" y="18" width="4" height="2" rx="1" fill="#93C4F5"/>
</svg>
