<svg width="28" height="28" viewBox="0 0 28 28" fill="none" xmlns="http://www.w3.org/2000/svg">
<g id="check-circle-outline">
<g id="Union">
<path d="M20.6233 11.3585C21.0975 10.9223 21.1282 10.1842 20.692 9.71002C20.2557 9.23584 19.5177 9.20508 19.0435 9.64133L12.2247 15.9146L8.95661 12.908C8.48242 12.4717 7.74437 12.5025 7.30812 12.9767C6.87187 13.4509 6.90262 14.1889 7.37681 14.6252L11.4348 18.3585C11.8813 18.7693 12.5681 18.7693 13.0146 18.3585L20.6233 11.3585Z" fill="#C6C8CC"/>
<path fill-rule="evenodd" clip-rule="evenodd" d="M25.6667 13.9999C25.6667 20.4432 20.4434 25.6666 14 25.6666C7.55672 25.6666 2.33337 20.4432 2.33337 13.9999C2.33337 7.5566 7.55672 2.33325 14 2.33325C20.4434 2.33325 25.6667 7.5566 25.6667 13.9999ZM23.3334 13.9999C23.3334 19.1546 19.1547 23.3333 14 23.3333C8.84538 23.3333 4.66671 19.1546 4.66671 13.9999C4.66671 8.84526 8.84538 4.66659 14 4.66659C19.1547 4.66659 23.3334 8.84526 23.3334 13.9999Z" fill="#C6C8CC"/>
</g>
</g>
</svg>
