<svg width="40" height="40" viewBox="0 0 40 40" fill="none" xmlns="http://www.w3.org/2000/svg">
<path d="M8.33301 6.66683C8.33301 4.82588 9.82539 3.3335 11.6663 3.3335H28.333C30.174 3.3335 31.6663 4.82588 31.6663 6.66683V33.3335C31.6663 35.1744 30.174 36.6668 28.333 36.6668H11.6663C9.82539 36.6668 8.33301 35.1744 8.33301 33.3335V6.66683Z" fill="#C4DDF5"/>
<path d="M11.6663 8.3335C11.6663 7.41302 12.4125 6.66683 13.333 6.66683H26.6663C27.5868 6.66683 28.333 7.41302 28.333 8.3335V11.6668C28.333 12.5873 27.5868 13.3335 26.6663 13.3335H13.333C12.4125 13.3335 11.6663 12.5873 11.6663 11.6668V8.3335Z" fill="#0A7FF5"/>
<path d="M11.6663 18.3335C11.6663 17.413 12.4125 16.6668 13.333 16.6668C14.2535 16.6668 14.9997 17.413 14.9997 18.3335C14.9997 19.254 14.2535 20.0002 13.333 20.0002C12.4125 20.0002 11.6663 19.254 11.6663 18.3335Z" fill="#62ABF5"/>
<path d="M11.6663 25.0002C11.6663 24.0797 12.4125 23.3335 13.333 23.3335C14.2535 23.3335 14.9997 24.0797 14.9997 25.0002C14.9997 25.9206 14.2535 26.6668 13.333 26.6668C12.4125 26.6668 11.6663 25.9206 11.6663 25.0002Z" fill="#62ABF5"/>
<path d="M11.6663 31.6668C11.6663 30.7464 12.4125 30.0002 13.333 30.0002C14.2535 30.0002 14.9997 30.7464 14.9997 31.6668C14.9997 32.5873 14.2535 33.3335 13.333 33.3335C12.4125 33.3335 11.6663 32.5873 11.6663 31.6668Z" fill="#62ABF5"/>
<path d="M18.333 18.3335C18.333 17.413 19.0792 16.6668 19.9997 16.6668C20.9201 16.6668 21.6663 17.413 21.6663 18.3335C21.6663 19.254 20.9201 20.0002 19.9997 20.0002C19.0792 20.0002 18.333 19.254 18.333 18.3335Z" fill="#62ABF5"/>
<path d="M18.333 25.0002C18.333 24.0797 19.0792 23.3335 19.9997 23.3335C20.9201 23.3335 21.6663 24.0797 21.6663 25.0002C21.6663 25.9206 20.9201 26.6668 19.9997 26.6668C19.0792 26.6668 18.333 25.9206 18.333 25.0002Z" fill="#62ABF5"/>
<path d="M18.333 31.6668C18.333 30.7464 19.0792 30.0002 19.9997 30.0002C20.9201 30.0002 21.6663 30.7464 21.6663 31.6668C21.6663 32.5873 20.9201 33.3335 19.9997 33.3335C19.0792 33.3335 18.333 32.5873 18.333 31.6668Z" fill="#62ABF5"/>
<path d="M24.9997 18.3335C24.9997 17.413 25.7459 16.6668 26.6663 16.6668C27.5868 16.6668 28.333 17.413 28.333 18.3335C28.333 19.254 27.5868 20.0002 26.6663 20.0002C25.7459 20.0002 24.9997 19.254 24.9997 18.3335Z" fill="#62ABF5"/>
<path d="M24.9997 25.0002C24.9997 24.0797 25.7459 23.3335 26.6663 23.3335C27.5868 23.3335 28.333 24.0797 28.333 25.0002C28.333 25.9206 27.5868 26.6668 26.6663 26.6668C25.7459 26.6668 24.9997 25.9206 24.9997 25.0002Z" fill="#62ABF5"/>
<path d="M24.9997 31.6668C24.9997 30.7464 25.7459 30.0002 26.6663 30.0002C27.5868 30.0002 28.333 30.7464 28.333 31.6668C28.333 32.5873 27.5868 33.3335 26.6663 33.3335C25.7459 33.3335 24.9997 32.5873 24.9997 31.6668Z" fill="#62ABF5"/>
</svg>
