<svg width="16" height="16" viewBox="0 0 16 16" fill="none" xmlns="http://www.w3.org/2000/svg">
<path fill-rule="evenodd" clip-rule="evenodd" d="M7.99967 14.6668C11.6816 14.6668 14.6663 11.6821 14.6663 8.00016C14.6663 4.31826 11.6816 1.3335 7.99967 1.3335C4.31778 1.3335 1.33301 4.31826 1.33301 8.00016C1.33301 11.6821 4.31778 14.6668 7.99967 14.6668ZM11.7844 6.49078C12.0553 6.2415 12.0729 5.81975 11.8236 5.54879C11.5743 5.27783 11.1526 5.26026 10.8816 5.50954L6.98518 9.09428L5.11771 7.37621C4.84675 7.12692 4.42501 7.1445 4.17572 7.41546C3.92644 7.68642 3.94401 8.10816 4.21497 8.35745L6.53381 10.4908C6.78895 10.7255 7.18141 10.7255 7.43655 10.4908L11.7844 6.49078Z" fill="#0A7FF5"/>
</svg>
