<svg width="28" height="28" viewBox="0 0 28 28" fill="none" xmlns="http://www.w3.org/2000/svg">
<path fill-rule="evenodd" clip-rule="evenodd" d="M23.0579 15.5333C22.8117 15.2793 22.6989 14.9278 22.7264 14.5752C22.7413 14.3854 22.7502 14.1941 22.7502 13.9999C22.7502 13.797 22.7404 13.594 22.7244 13.3894C22.6968 13.0371 22.8125 12.6866 23.0602 12.4345L24.6482 10.818C25.0157 10.4439 25.0885 9.87059 24.826 9.41657L23.3775 6.91069C23.1167 6.45946 22.5882 6.23596 22.0828 6.36314L19.8597 6.92249C19.5184 7.00837 19.1589 6.93219 18.8678 6.73433C18.5514 6.51923 18.2238 6.32213 17.8743 6.14914C17.549 5.98814 17.2905 5.71017 17.1915 5.36097L16.574 3.18183C16.4317 2.67977 15.9733 2.33325 15.4515 2.33325H12.5488C12.027 2.33325 11.5686 2.67977 11.4264 3.18183L10.8088 5.36097C10.7098 5.71017 10.4513 5.98814 10.126 6.14914C9.77652 6.32213 9.4489 6.51923 9.13247 6.73433C8.84142 6.93219 8.48189 7.00837 8.14059 6.92249L5.91752 6.36314C5.41208 6.23596 4.88361 6.45946 4.62278 6.91069L3.17429 9.41657C2.91185 9.87058 2.98459 10.4439 3.3521 10.818L4.9401 12.4345C5.18777 12.6866 5.30352 13.0371 5.27592 13.3894C5.25988 13.594 5.25016 13.797 5.25016 13.9999C5.25016 14.1941 5.25907 14.3854 5.27388 14.5752C5.30142 14.9278 5.18859 15.2793 4.94238 15.5333L3.34373 17.1821C2.98067 17.5565 2.91026 18.1265 3.17127 18.578L4.62139 21.0867C4.88287 21.5391 5.41324 21.7625 5.91956 21.6334L8.1304 21.07C8.47748 20.9816 8.84337 21.0612 9.13826 21.2645C9.45291 21.4814 9.77869 21.6783 10.1261 21.8506C10.4512 22.0118 10.7098 22.2897 10.8088 22.6389L11.4264 24.818C11.5686 25.3201 12.027 25.6666 12.5488 25.6666H15.4515C15.9733 25.6666 16.4317 25.3201 16.574 24.818L17.1942 22.6294C17.2916 22.2856 17.5437 22.0101 17.8637 21.8509C18.2147 21.6763 18.5437 21.4804 18.8613 21.2634C19.157 21.0613 19.5228 20.9816 19.8699 21.07L22.0808 21.6334C22.5871 21.7625 23.1174 21.5391 23.3789 21.0867L24.829 18.5781C25.0901 18.1265 25.0196 17.5565 24.6566 17.1821L23.0579 15.5333ZM11.1128 16.8873C11.8786 17.653 12.9172 18.0833 14.0002 18.0833C15.0831 18.0833 16.1217 17.653 16.8875 16.8873C17.6533 16.1215 18.0835 15.0829 18.0835 13.9999C18.0835 12.917 17.6533 11.8783 16.8875 11.1126C16.1217 10.3468 15.0831 9.91659 14.0002 9.91659C12.9172 9.91659 11.8786 10.3468 11.1128 11.1126C10.347 11.8783 9.91683 12.917 9.91683 13.9999C9.91683 15.0829 10.347 16.1215 11.1128 16.8873Z" fill="#939599"/>
</svg>
