<svg width="22" height="26" viewBox="0 0 22 26" fill="none" xmlns="http://www.w3.org/2000/svg">
<path d="M17.9316 24.267C16.5979 25.5599 15.1416 25.3558 13.7399 24.7434C12.2565 24.1173 10.8955 24.0901 9.33044 24.7434C7.37068 25.5871 6.33637 25.3422 5.16596 24.267C-1.47542 17.4215 -0.495546 6.99671 7.04406 6.61565C8.88133 6.71091 10.1606 7.62274 11.2358 7.7044C12.8417 7.37777 14.3795 6.43873 16.0943 6.56121C18.1493 6.72452 19.7008 7.54109 20.7215 9.0109C16.4754 11.5559 17.4825 17.1493 21.3747 18.7144C20.599 20.7558 19.5919 22.7836 17.918 24.2806L17.9316 24.267ZM11.0997 6.53399C10.8955 3.4991 13.3588 0.994969 16.1896 0.75C16.5842 4.26122 13.005 6.87423 11.0997 6.53399Z" fill="black"/>
</svg>
