<svg width="28" height="28" viewBox="0 0 28 28" fill="none" xmlns="http://www.w3.org/2000/svg">
<path d="M3.57459 8.76183C4.54526 6.82895 6.03435 5.20409 7.87542 4.06888C9.71649 2.93366 11.837 2.33282 13.9999 2.3335C17.1441 2.3335 19.7854 3.48966 21.8049 5.37266L18.4601 8.71866C17.2503 7.5625 15.7126 6.97333 13.9999 6.97333C10.9608 6.97333 8.38825 9.02666 7.47242 11.7835C7.23909 12.4835 7.10609 13.2302 7.10609 14.0002C7.10609 14.7702 7.23909 15.5168 7.47242 16.2168C8.38942 18.9748 10.9608 21.027 13.9999 21.027C15.5691 21.027 16.9049 20.6128 17.9503 19.9128C18.5563 19.5138 19.0751 18.9961 19.4753 18.3909C19.8756 17.7857 20.1489 17.1057 20.2789 16.3918H13.9999V11.8792H24.9876C25.1252 12.6422 25.1999 13.4378 25.1999 14.265C25.1999 17.8187 23.9283 20.81 21.7209 22.84C19.7913 24.6227 17.1499 25.6668 13.9999 25.6668C12.4677 25.6674 10.9503 25.3661 9.53455 24.78C8.11881 24.1939 6.83244 23.3346 5.74897 22.2511C4.6655 21.1676 3.80616 19.8813 3.22008 18.4655C2.63399 17.0498 2.33264 15.5324 2.33325 14.0002C2.33325 12.1172 2.78359 10.3368 3.57459 8.76183Z" fill="black"/>
</svg>
