<svg width="125" height="28" viewBox="0 0 125 28" fill="none" xmlns="http://www.w3.org/2000/svg">
<path d="M62.2195 0.473037C68.2807 0.473037 72.1446 2.51301 72.1593 5.85383C72.1446 9.1503 68.2807 11.1607 62.2195 11.1459C56.2026 11.1607 52.265 9.1503 52.2797 5.85383C52.265 2.51301 56.2026 0.473037 62.2195 0.473037ZM49.8906 15.8467V15.8467C49.8906 13.9853 51.3996 12.4763 53.261 12.4763H74.5779V12.4763C74.5779 14.3378 73.069 15.8467 71.2075 15.8467H49.8906ZM56.2699 26.8448C54.3105 26.8448 52.7221 25.2564 52.7221 23.2971V17.5024H68.0807C70.04 17.5024 71.6284 19.0908 71.6284 21.0501V26.8448H56.2699ZM56.704 5.85383C56.6745 7.21381 58.6359 7.86423 62.2195 7.86423C65.7737 7.86423 67.7646 7.21381 67.7646 5.85383C67.7646 4.43472 65.7737 3.76951 62.2195 3.78429C58.6359 3.76951 56.6745 4.43472 56.704 5.85383ZM56.8809 22.1145C56.8809 22.8492 57.4766 23.4449 58.2114 23.4449H67.4991V22.1736C67.4991 21.4388 66.9035 20.8432 66.1687 20.8432H56.8809V22.1145Z" fill="#0A7FF5"/>
<path d="M97.466 0V5.85383H99.7635C100.498 5.85383 101.094 6.44948 101.094 7.18424V9.34247H97.466V22.8045C97.466 25.1502 95.5645 27.0518 93.2188 27.0518V27.0518V4.24729C93.2188 1.90158 95.1203 0 97.466 0V0ZM77.9404 22.5284C76.6902 20.8266 77.2935 18.4347 79.0203 17.2193C83.0214 14.4031 85.2446 10.8934 85.8303 6.20861H77.1735V6.20861C77.1735 4.28188 78.7354 2.71996 80.6621 2.71996H90.1513C90.1513 10.9833 87.128 18.005 77.9404 22.5284V22.5284Z" fill="#0A7FF5"/>
<path d="M118.083 1.47824V1.47824C118.083 3.35598 116.561 4.87819 114.683 4.87819H112.921C113.124 7.30044 114.477 9.72268 117.539 11.1835C118.343 11.5668 118.708 12.5708 118.215 13.3121L117.564 14.2914C117.241 14.7768 116.636 15.0029 116.093 14.7928C113.627 13.84 111.891 12.1844 110.813 10.1407C109.704 12.3759 107.888 14.2205 105.268 15.3147C104.711 15.547 104.081 15.3174 103.753 14.8115L103.08 13.7711C102.601 13.0317 102.966 12.0425 103.758 11.658C106.927 10.1207 108.352 7.48292 108.556 4.87819H103.247V4.87819C103.247 3.00045 104.769 1.47824 106.647 1.47824H118.083ZM110.098 26.8448C108.139 26.8448 106.55 25.2564 106.55 23.2971V16.7337H121.29C123.249 16.7337 124.837 18.3221 124.837 20.2814V26.8448H110.098ZM110.709 22.1145C110.709 22.8492 111.305 23.4449 112.04 23.4449H120.679V21.4049C120.679 20.6701 120.083 20.0745 119.348 20.0745H110.709V22.1145ZM120.59 15.6398V4.27684C120.59 1.93114 122.492 0.0295648 124.837 0.0295648V0.0295648V11.3925C124.837 13.7382 122.936 15.6398 120.59 15.6398V15.6398Z" fill="#0A7FF5"/>
<path fill-rule="evenodd" clip-rule="evenodd" d="M33.2605 9.53424L33.2605 26.6079L20.6215 26.6079C9.23264 26.6079 0.0001034 17.3754 0.000103898 5.98646L0.000104111 1.10827L24.8345 1.10827C29.4881 1.10827 33.2605 4.88071 33.2605 9.53424ZM28.6039 11.3082L28.6039 21.9515L20.8432 21.9515C11.9035 21.9515 4.65646 14.7045 4.65646 5.76477L23.0605 5.76477C26.1221 5.76477 28.6039 8.24663 28.6039 11.3082Z" fill="#0A7FF5"/>
<path fill-rule="evenodd" clip-rule="evenodd" d="M37.9168 5.76477L37.9168 10.4212L37.9168 26.608C40.4885 26.608 42.5733 24.5232 42.5733 21.9515L42.5733 10.4212L47.2298 10.4212L47.2298 8.20387C47.2298 6.85679 46.1377 5.76477 44.7907 5.76477L42.5733 5.76477L42.5733 1.10832C40.0016 1.10832 37.9169 3.19308 37.9168 5.76477Z" fill="#0A7FF5"/>
</svg>
