<svg width="120" height="120" viewBox="0 0 120 120" fill="none" xmlns="http://www.w3.org/2000/svg">
<path d="M68.9008 76.4992L98.9008 106.499L109.451 95.6992L79.4508 65.6992L68.9008 76.4992ZM87.5008 50.4992C85.5508 50.4992 83.4508 50.2492 81.8008 49.5492L24.8508 106.249L14.3008 95.6992L51.3508 58.6992L42.5008 49.7992L38.9008 53.2992L31.6508 46.2492V60.5492L28.1508 64.0492L10.5508 46.2492L14.0508 42.7492H28.1008L21.1008 35.6992L38.9008 17.8992C44.7508 12.0492 54.1508 12.0492 60.0008 17.8992L49.4508 28.6992L56.5008 35.6992L52.9508 39.2492L61.9008 48.1492L71.0008 38.7492C70.3008 37.0992 70.0008 34.9992 70.0008 33.1492C70.0008 23.2992 77.8008 15.5492 87.5008 15.5492C90.4508 15.5492 93.0508 16.2492 95.4008 17.6492L82.0508 30.9992L89.5508 38.4992L102.901 25.1492C104.301 27.4992 105.001 29.9992 105.001 33.1492C105.001 42.7492 97.2508 50.4992 87.5008 50.4992Z" fill="#C6C8CC"/>
</svg>
