<svg width="22" height="24" viewBox="0 0 22 24" fill="none" xmlns="http://www.w3.org/2000/svg">
<path id="Vector 53" d="M12.2232 13.8548C12.2232 12.6315 10.3743 11.4081 7.29284 11.4081C4.21144 11.4081 1.13003 13.2432 1.74631 18.7483C2.36259 24.2533 14.0719 22.4183 16.5371 21.195C18.5092 20.2163 18.5913 18.7483 18.3859 18.1366C18.7968 17.9327 19.7417 17.0356 20.2348 15.0782C20.851 12.6315 18.3859 5.29139 18.3859 4.06804C18.3859 2.84469 15.3045 2.23325 13.4557 1.62157C11.6068 1.0099 10.2193 2.90525 10.2193 4.27506C10.2193 5.86235 12.167 6.75011 12.167 6.75011L14.5003 7.91677M12.2232 13.8548C11.7302 15.8122 12.4286 16.7093 12.8395 16.9132M12.2232 13.8548C12.4279 12.8354 13.7223 10.9185 14.071 9.57312L14.5003 7.91677M16.8337 6.75011C16.2503 7.91677 15.667 8.50011 14.5003 7.91677" stroke="black" stroke-width="1.5" stroke-linecap="round" stroke-linejoin="round"/>
</svg>
