<svg width="32" height="32" viewBox="0 0 32 32" fill="none" xmlns="http://www.w3.org/2000/svg">
<g clip-path="url(#clip0_6542_4182)">
<path d="M17.3973 18.1198C17.3973 16.7217 15.2842 15.3236 11.7626 15.3236C8.24095 15.3236 4.71934 17.4208 5.42366 23.7123C6.12798 30.0038 19.5101 27.9066 22.3274 26.5085C24.5812 25.39 24.6751 23.7123 24.4403 23.0132C24.9099 22.7802 25.9898 21.7549 26.5533 19.5179C27.2576 16.7217 24.4403 8.33301 24.4403 6.9349C24.4403 5.53678 20.9187 4.838 18.8058 4.13894C16.6928 3.43988 15.1071 5.606 15.1071 7.1715C15.1071 8.98555 17.333 10.0001 17.333 10.0001L19.9997 11.3335M17.3973 18.1198C16.8338 20.3568 17.632 21.3821 18.1016 21.6151M17.3973 18.1198C17.6312 16.9547 19.1105 14.764 19.509 13.2264L19.9997 11.3335M22.6663 10.0001C21.9997 11.3335 21.333 12.0001 19.9997 11.3335" stroke="#ADAFB2" stroke-width="2" stroke-linecap="round" stroke-linejoin="round"/>
</g>
<defs>
<clipPath id="clip0_6542_4182">
<rect width="32" height="32" fill="white"/>
</clipPath>
</defs>
</svg>
