<svg width="24" height="26" viewBox="0 0 24 26" fill="none" xmlns="http://www.w3.org/2000/svg">
<path d="M11.1081 4.1715C11.1081 5.98555 13.334 7.00012 13.334 7.00012L16.0007 8.33345L15.51 10.2264C15.1115 11.764 13.6322 13.9547 13.3982 15.1198C13.3982 13.7217 11.2851 12.3236 7.76353 12.3236C4.24192 12.3236 0.720316 14.4208 1.42464 20.7123C2.12896 27.0038 15.5111 24.9066 18.3283 23.5085C20.5822 22.39 20.6761 20.7123 20.4413 20.0132C20.9109 19.7802 21.9908 18.7549 22.5543 16.5179C23.2586 13.7217 20.4413 5.33301 20.4413 3.9349C20.4413 2.53678 16.9197 1.838 14.8067 1.13894C12.6938 0.439881 11.1081 2.606 11.1081 4.1715Z" fill="#0A7FF5"/>
<path d="M13.3982 15.1198C13.3982 13.7217 11.2851 12.3236 7.76353 12.3236C4.24192 12.3236 0.720316 14.4208 1.42464 20.7123C2.12896 27.0038 15.5111 24.9066 18.3283 23.5085C20.5822 22.39 20.6761 20.7123 20.4413 20.0132C20.9109 19.7802 21.9908 18.7549 22.5543 16.5179C23.2586 13.7217 20.4413 5.33301 20.4413 3.9349C20.4413 2.53678 16.9197 1.838 14.8067 1.13894C12.6938 0.439881 11.1081 2.606 11.1081 4.1715C11.1081 5.98555 13.334 7.00012 13.334 7.00012L16.0007 8.33345M13.3982 15.1198C12.8348 17.3568 13.633 18.3821 14.1026 18.6151M13.3982 15.1198C13.6322 13.9547 15.1115 11.764 15.51 10.2264L16.0007 8.33345M18.6673 7.00012C18.0007 8.33345 17.334 9.00012 16.0007 8.33345" stroke="#0A7FF5" stroke-width="2" stroke-linecap="round" stroke-linejoin="round"/>
</svg>
