<svg width="32" height="32" viewBox="0 0 32 32" fill="none" xmlns="http://www.w3.org/2000/svg">
<g id="cart">
<path id="Vector" d="M22.6667 22.6667C21.1939 22.6667 20 23.8606 20 25.3333C20 26.8061 21.1939 28 22.6667 28C24.1394 28 25.3333 26.8061 25.3333 25.3333C25.3333 23.8606 24.1394 22.6667 22.6667 22.6667ZM22.6667 22.6667H12.3919C11.7772 22.6667 11.4692 22.6667 11.2161 22.5573C10.9929 22.4608 10.7992 22.3055 10.6581 22.1074C10.4999 21.8853 10.4362 21.5884 10.3103 21.0007L7.02865 5.6862C6.89978 5.08485 6.83449 4.7845 6.67448 4.5599C6.53335 4.3618 6.33969 4.20588 6.11642 4.1094C5.86327 4 5.55705 4 4.94205 4H4M8 8H25.1643C26.1267 8 26.6074 8 26.9304 8.20048C27.2133 8.37608 27.4204 8.65149 27.5107 8.97201C27.6138 9.33791 27.4814 9.79995 27.2146 10.7246L25.3685 17.1246C25.209 17.6775 25.1292 17.9534 24.9674 18.1585C24.8246 18.3396 24.6363 18.4813 24.4227 18.5684C24.1815 18.6667 23.8948 18.6667 23.3228 18.6667H10.3073M10.6667 28C9.19391 28 8 26.8061 8 25.3333C8 23.8606 9.19391 22.6667 10.6667 22.6667C12.1394 22.6667 13.3333 23.8606 13.3333 25.3333C13.3333 26.8061 12.1394 28 10.6667 28Z" stroke="#ADAFB2" stroke-width="2" stroke-linecap="round" stroke-linejoin="round"/>
</g>
</svg>
