<svg width="32" height="32" viewBox="0 0 32 32" fill="none" xmlns="http://www.w3.org/2000/svg">
<g id="house">
<path id="Vector" d="M26.6663 22.6669V15.2696C26.6663 14.5572 26.6657 14.2008 26.5791 13.8692C26.5023 13.5754 26.3763 13.2974 26.2058 13.0462C26.0133 12.7627 25.7457 12.5276 25.2096 12.0584L18.8096 6.45843C17.8141 5.58739 17.3163 5.15208 16.7562 4.98643C16.2626 4.84046 15.7365 4.84046 15.2429 4.98643C14.6832 5.15196 14.1861 5.58685 13.1922 6.45658L6.79004 12.0584C6.25386 12.5276 5.9864 12.7627 5.79395 13.0462C5.6234 13.2974 5.49641 13.5754 5.41964 13.8692C5.33301 14.2008 5.33301 14.5572 5.33301 15.2696V22.6669C5.33301 23.9094 5.33301 24.5304 5.536 25.0205C5.80665 25.6739 6.32543 26.1936 6.97884 26.4643C7.4689 26.6673 8.09015 26.6673 9.33266 26.6673C10.5752 26.6673 11.1971 26.6673 11.6872 26.4643C12.3406 26.1936 12.8592 25.674 13.1299 25.0206C13.3329 24.5305 13.333 23.9093 13.333 22.6668V21.3334C13.333 19.8607 14.5269 18.6668 15.9997 18.6668C17.4724 18.6668 18.6663 19.8607 18.6663 21.3334V22.6668C18.6663 23.9093 18.6663 24.5305 18.8693 25.0206C19.14 25.674 19.6588 26.1936 20.3122 26.4643C20.8022 26.6673 21.4235 26.6673 22.666 26.6673C23.9085 26.6673 24.5305 26.6673 25.0205 26.4643C25.6739 26.1936 26.1926 25.6739 26.4632 25.0205C26.6662 24.5304 26.6663 23.9094 26.6663 22.6669Z" stroke="#ADAFB2" stroke-width="2" stroke-linecap="round" stroke-linejoin="round"/>
</g>
</svg>
