<svg width="28" height="28" viewBox="0 0 28 28" fill="none" xmlns="http://www.w3.org/2000/svg">
<g id="house">
<path id="Vector" d="M23.3337 19.8335V13.3609C23.3337 12.7375 23.3331 12.4257 23.2573 12.1356C23.1902 11.8785 23.0799 11.6352 22.9307 11.4154C22.7623 11.1673 22.5281 10.9616 22.059 10.5511L16.459 5.65113C15.5879 4.88896 15.1524 4.50807 14.6623 4.36313C14.2304 4.2354 13.77 4.2354 13.3381 4.36313C12.8484 4.50796 12.4135 4.88849 11.5437 5.64951L5.94189 10.5511C5.47274 10.9616 5.23871 11.1673 5.07031 11.4154C4.92108 11.6352 4.80997 11.8785 4.74279 12.1356C4.66699 12.4257 4.66699 12.7375 4.66699 13.3609V19.8335C4.66699 20.9207 4.66699 21.4641 4.84461 21.8929C5.08143 22.4646 5.53536 22.9194 6.1071 23.1563C6.5359 23.3339 7.07949 23.3339 8.16669 23.3339C9.25389 23.3339 9.79809 23.3339 10.2269 23.1563C10.7986 22.9194 11.2524 22.4647 11.4893 21.893C11.6669 21.4642 11.667 20.9206 11.667 19.8334V18.6668C11.667 17.3781 12.7117 16.3334 14.0003 16.3334C15.289 16.3334 16.3337 17.3781 16.3337 18.6668V19.8334C16.3337 20.9206 16.3337 21.4642 16.5113 21.893C16.7481 22.4647 17.202 22.9194 17.7738 23.1563C18.2026 23.3339 18.7462 23.3339 19.8334 23.3339C20.9206 23.3339 21.4648 23.3339 21.8936 23.1563C22.4653 22.9194 22.9191 22.4646 23.1559 21.8929C23.3335 21.4641 23.3337 20.9207 23.3337 19.8335Z" stroke="black" stroke-width="1.5" stroke-linecap="round" stroke-linejoin="round"/>
</g>
</svg>
