<svg width="24" height="25" viewBox="0 0 24 25" fill="none" xmlns="http://www.w3.org/2000/svg">
<path d="M22.6663 19.6669V12.2696C22.6663 11.5572 22.6657 11.2008 22.5791 10.8692C22.5023 10.5754 22.3763 10.2974 22.2058 10.0462C22.0133 9.76268 21.7457 9.52759 21.2096 9.05844L14.8096 3.45843C13.8141 2.58739 13.3163 2.15208 12.7562 1.98643C12.2626 1.84046 11.7365 1.84046 11.2429 1.98643C10.6832 2.15196 10.1861 2.58685 9.19216 3.45658L2.79004 9.05844C2.25386 9.52759 1.9864 9.76268 1.79395 10.0462C1.6234 10.2974 1.49641 10.5754 1.41964 10.8692C1.33301 11.2008 1.33301 11.5572 1.33301 12.2696V19.6669C1.33301 20.9094 1.33301 21.5304 1.536 22.0205C1.80665 22.6739 2.32543 23.1936 2.97884 23.4643C3.4689 23.6673 4.09015 23.6673 5.33266 23.6673C6.57517 23.6673 7.19712 23.6673 7.68717 23.4643C8.34058 23.1936 8.85923 22.674 9.12988 22.0206C9.33287 21.5305 9.33301 20.9093 9.33301 19.6668V18.3334C9.33301 16.8607 10.5269 15.6668 11.9997 15.6668C13.4724 15.6668 14.6663 16.8607 14.6663 18.3334V19.6668C14.6663 20.9093 14.6663 21.5305 14.8693 22.0206C15.14 22.674 15.6588 23.1936 16.3122 23.4643C16.8022 23.6673 17.4235 23.6673 18.666 23.6673C19.9085 23.6673 20.5305 23.6673 21.0205 23.4643C21.6739 23.1936 22.1926 22.6739 22.4632 22.0205C22.6662 21.5304 22.6663 20.9094 22.6663 19.6669Z" fill="#0A7FF5" stroke="#0A7FF5" stroke-width="2" stroke-linecap="round" stroke-linejoin="round"/>
</svg>
