<svg width="32" height="32" viewBox="0 0 32 32" fill="none" xmlns="http://www.w3.org/2000/svg">
<g id="pickle">
<g id="Vector">
<path d="M25.9411 16C28.6863 13.2548 28.6863 8.80404 25.9411 6.05887C23.196 3.31371 18.7452 3.31371 16 6.05887C13.2548 3.31371 8.80404 3.31371 6.05887 6.05887C3.31371 8.80404 3.31371 13.2548 6.05887 16C3.31371 18.7452 3.31371 23.196 6.05887 25.9411C8.80404 28.6863 13.2548 28.6863 16 25.9411C18.7452 28.6863 23.196 28.6863 25.9411 25.9411C28.6863 23.196 28.6863 18.7452 25.9411 16Z" stroke="#ADAFB2" stroke-width="2" stroke-linejoin="round"/>
<path d="M19.1067 15.52C19.4512 15.7473 19.4512 16.2528 19.1067 16.4801L14.0162 19.839C13.6338 20.0913 13.1243 19.817 13.1243 19.3589L13.1243 12.6412C13.1243 12.1831 13.6338 11.9088 14.0162 12.1612L19.1067 15.52Z" stroke="#ADAFB2" stroke-width="2" stroke-linejoin="round"/>
</g>
</g>
</svg>
