<svg width="28" height="28" viewBox="0 0 28 28" fill="none" xmlns="http://www.w3.org/2000/svg">
<path fill-rule="evenodd" clip-rule="evenodd" d="M25.045 2.95414C28.0952 6.00433 28.0952 10.9497 25.045 13.9998C28.0952 17.05 28.0952 21.9953 25.045 25.0455C21.9949 28.0957 17.0495 28.0957 13.9993 25.0455C10.9492 28.0957 6.00384 28.0957 2.95365 25.0455C-0.0965306 21.9953 -0.0965306 17.05 2.95365 13.9998C-0.0965306 10.9497 -0.0965306 6.00433 2.95365 2.95414C6.00384 -0.0960423 10.9492 -0.0960423 13.9993 2.95414C17.0495 -0.0960423 21.9949 -0.0960423 25.045 2.95414ZM17.4512 14.5333C17.834 14.2807 17.834 13.7191 17.4512 13.4665L11.7951 9.73446C11.3703 9.45411 10.8042 9.75882 10.8042 10.2678L10.8041 17.732C10.8041 18.241 11.3703 18.5457 11.7951 18.2654L17.4512 14.5333Z" fill="#0A7FF5"/>
</svg>
