<svg width="32" height="32" viewBox="0 0 32 32" fill="none" xmlns="http://www.w3.org/2000/svg">
<g clip-path="url(#clip0_6259_3886)">
<path fill-rule="evenodd" clip-rule="evenodd" d="M12.667 6.66683C12.667 8.66683 14.0003 10.0002 16.0003 10.0002C18.0003 10.0002 19.3337 8.66683 19.3337 6.66683C19.3337 4.66683 18.0003 3.3335 16.0003 3.3335C14.0003 3.3335 12.667 4.66683 12.667 6.66683ZM24.667 22.6668C23.817 22.2418 22.667 22.0002 20.667 22.6668L16.0003 24.1897C13.0794 23.1988 9.3412 22.0002 8.00033 22.0002C6.00033 22.0002 4.66699 24.0002 4.66699 25.3335C4.66699 26.6668 5.58998 28.6668 7.33366 28.6668H19.3337H24.0003C26.0003 28.6668 26.667 26.6668 26.667 25.3335C26.667 24.0002 25.8183 23.2425 24.667 22.6668Z" fill="#0A7FF5"/>
<path d="M16.0003 10.0002C9.33366 10.0002 8.00033 14.0002 8.00033 17.3335C8.00033 19.1837 9.64345 19.8015 11.3337 19.871C11.5606 19.8804 11.7884 19.8798 12.0132 19.871C13.1304 19.8274 14.1731 19.5804 14.667 19.3335L16.0003 18.6668L17.3337 19.3335C17.8276 19.5804 18.8703 19.8274 19.9875 19.871C20.2123 19.8798 20.44 19.8804 20.667 19.871C22.3572 19.8015 24.0003 19.1837 24.0003 17.3335C24.0003 14.0002 22.667 10.0002 16.0003 10.0002Z" fill="#0A7FF5"/>
<path d="M12.0132 19.871C11.7884 19.8798 11.5606 19.8804 11.3337 19.871V22.6668H20.667L20.667 19.871C20.44 19.8804 20.2123 19.8798 19.9875 19.871H12.0132Z" fill="#0A7FF5"/>
<path d="M16.0003 10.0002C14.0003 10.0002 12.667 8.66683 12.667 6.66683C12.667 4.66683 14.0003 3.3335 16.0003 3.3335C18.0003 3.3335 19.3337 4.66683 19.3337 6.66683C19.3337 8.66683 18.0003 10.0002 16.0003 10.0002ZM16.0003 10.0002C9.33366 10.0002 8.00033 14.0002 8.00033 17.3335C8.00033 19.1837 9.64345 19.8015 11.3337 19.871M16.0003 10.0002C22.667 10.0002 24.0003 14.0002 24.0003 17.3335C24.0003 19.1837 22.3572 19.8015 20.667 19.871M14.667 19.3335C15.7337 18.8002 14.667 19.3335 16.0003 18.6668M14.667 19.3335L16.0003 18.6668M14.667 19.3335C14.1731 19.5804 13.1304 19.8274 12.0132 19.871M16.0003 18.6668C17.3337 19.3335 16.267 18.8002 17.3337 19.3335M16.0003 18.6668L17.3337 19.3335M17.3337 19.3335C17.8276 19.5804 18.8703 19.8274 19.9875 19.871M11.3337 16.6668C15.3337 16.6668 14.667 15.3335 16.0003 14.0002C17.3337 15.3335 16.667 16.6668 20.667 16.6668M11.3337 19.871V22.6668H20.667M11.3337 19.871C11.5606 19.8804 11.7884 19.8798 12.0132 19.871M11.3337 19.871H12.0132M20.667 19.871L20.667 22.6668M20.667 19.871C20.44 19.8804 20.2123 19.8798 19.9875 19.871M20.667 19.871H19.9875M20.667 22.6668L16.0003 24.1897M20.667 22.6668C22.667 22.0002 23.817 22.2418 24.667 22.6668C25.8183 23.2425 26.667 24.0002 26.667 25.3335C26.667 26.6668 26.0003 28.6668 24.0003 28.6668M7.33366 28.6668C10.8892 28.6668 18.267 28.6668 19.3337 28.6668M7.33366 28.6668C5.58998 28.6668 4.66699 26.6668 4.66699 25.3335C4.66699 24.0002 6.00033 22.0002 8.00033 22.0002C9.3412 22.0002 13.0794 23.1988 16.0003 24.1897M7.33366 28.6668H19.3337M19.3337 28.6668C20.667 28.6668 21.3337 26.0002 19.3337 25.3335C18.6745 25.1138 17.4362 24.6769 16.0003 24.1897M19.3337 28.6668C20.2225 28.6668 22.4003 28.6668 24.0003 28.6668M19.3337 28.6668H24.0003M12.0132 19.871H19.9875" stroke="#0A7FF5" stroke-width="2" stroke-linecap="round" stroke-linejoin="round"/>
<path d="M11.333 16.6667C15.333 16.6667 14.6663 15.3333 15.9997 14C17.333 15.3333 16.6663 16.6667 20.6663 16.6667" stroke="white" stroke-width="2" stroke-linecap="round" stroke-linejoin="round"/>
<path d="M5.33301 20C6.29869 20.4828 8.41839 21.228 10.6663 21.808M26.6663 20C24.8886 20.8889 19.1997 22.6667 15.9997 22.6667C14.5379 22.6667 12.5568 22.2957 10.6663 21.808M10.6663 21.808C10.6663 21.808 21.333 24 21.333 28C21.333 29.3333 20.6663 31.3333 15.9997 31.3333" stroke="white" stroke-width="2" stroke-linecap="round" stroke-linejoin="round"/>
</g>
<defs>
<clipPath id="clip0_6259_3886">
<rect width="32" height="32" fill="white"/>
</clipPath>
</defs>
</svg>
