<svg width="29" height="28" viewBox="0 0 29 28" fill="none" xmlns="http://www.w3.org/2000/svg">
<g id="pose">
<path id="Vector 51" d="M14.4997 8.75008C12.7497 8.75008 11.583 7.58342 11.583 5.83341C11.583 4.08341 12.7497 2.91675 14.4997 2.91675C16.2497 2.91675 17.4163 4.08341 17.4163 5.83341C17.4163 7.58342 16.2497 8.75008 14.4997 8.75008ZM14.4997 8.75008C8.66634 8.75008 7.49967 12.2501 7.49967 15.1667C7.49967 16.7857 8.93741 17.3263 10.4163 17.3871M14.4997 8.75008C20.333 8.75008 21.4997 12.2501 21.4997 15.1667C21.4997 16.7857 20.0619 17.3263 18.583 17.3871M10.4163 14.5834C13.9163 14.5834 13.333 13.4167 14.4997 12.2501C15.6663 13.4167 15.083 14.5834 18.583 14.5834M10.4163 17.3871C11.6019 17.4359 12.8139 17.1763 13.333 16.9167C14.2663 16.4501 13.333 16.9167 14.4997 16.3334C15.6663 16.9167 14.733 16.4501 15.6663 16.9167C16.1854 17.1763 17.3975 17.4359 18.583 17.3871M10.4163 17.3871V19.8334M18.583 17.3871L18.583 19.8334M18.583 19.8334L14.4997 21.166M18.583 19.8334C20.333 19.2501 21.3393 19.4615 22.083 19.8334C23.0904 20.3371 23.833 21.0001 23.833 22.1667C23.833 23.3334 23.2497 25.0834 21.4997 25.0834C20.0997 25.0834 18.1941 25.0834 17.4163 25.0834M17.4163 25.0834C16.483 25.0834 10.0275 25.0834 6.91634 25.0834C5.39062 25.0834 4.58301 23.3334 4.58301 22.1667C4.58301 21.0001 5.74967 19.2501 7.49967 19.2501C8.67294 19.2501 11.9438 20.2989 14.4997 21.166M17.4163 25.0834C18.583 25.0834 19.1663 22.7501 17.4163 22.1667C16.8396 21.9745 15.756 21.5922 14.4997 21.166" stroke="black" stroke-width="1.5" stroke-linecap="round" stroke-linejoin="round"/>
</g>
</svg>
