<svg width="32" height="32" viewBox="0 0 32 32" fill="none" xmlns="http://www.w3.org/2000/svg">
<path d="M16.0003 10.0002C14.0003 10.0002 12.667 8.66683 12.667 6.66683C12.667 4.66683 14.0003 3.3335 16.0003 3.3335C18.0003 3.3335 19.3337 4.66683 19.3337 6.66683C19.3337 8.66683 18.0003 10.0002 16.0003 10.0002ZM16.0003 10.0002C9.33366 10.0002 8.00033 14.0002 8.00033 17.3335C8.00033 19.1837 9.64345 19.8015 11.3337 19.871M16.0003 10.0002C22.667 10.0002 24.0003 14.0002 24.0003 17.3335C24.0003 19.1837 22.3572 19.8015 20.667 19.871M11.3337 16.6668C15.3337 16.6668 14.667 15.3335 16.0003 14.0002C17.3337 15.3335 16.667 16.6668 20.667 16.6668M11.3337 19.871C12.6886 19.9268 14.0737 19.6301 14.667 19.3335C15.7337 18.8002 14.667 19.3335 16.0003 18.6668C17.3337 19.3335 16.267 18.8002 17.3337 19.3335C17.9269 19.6301 19.3121 19.9268 20.667 19.871M11.3337 19.871V22.6668M20.667 19.871L20.667 22.6668M20.667 22.6668L16.0003 24.1897M20.667 22.6668C22.667 22.0002 23.817 22.2418 24.667 22.6668C25.8183 23.2425 26.667 24.0002 26.667 25.3335C26.667 26.6668 26.0003 28.6668 24.0003 28.6668C22.4003 28.6668 20.2225 28.6668 19.3337 28.6668M19.3337 28.6668C18.267 28.6668 10.8892 28.6668 7.33366 28.6668C5.58998 28.6668 4.66699 26.6668 4.66699 25.3335C4.66699 24.0002 6.00033 22.0002 8.00033 22.0002C9.3412 22.0002 13.0794 23.1988 16.0003 24.1897M19.3337 28.6668C20.667 28.6668 21.3337 26.0002 19.3337 25.3335C18.6745 25.1138 17.4362 24.6769 16.0003 24.1897" stroke="#ADAFB2" stroke-width="2" stroke-linecap="round" stroke-linejoin="round"/>
</svg>
